<svg width="32.000000" height="32.000000" viewBox="0 0 32 32" fill="none" xmlns="http://www.w3.org/2000/svg" xmlns:xlink="http://www.w3.org/1999/xlink">
	<desc>
			Created with Pixso.
	</desc>
	<defs>
		<radialGradient gradientTransform="translate(15.654 -4.18504) rotate(0) scale(27.084 26.5541)" cx="0.000000" cy="0.000000" r="1.000000" id="paint_radial_201_73_0" gradientUnits="userSpaceOnUse">
			<stop offset="0.508000" stop-color="#B7D118"/>
			<stop offset="0.572000" stop-color="#B2D019"/>
			<stop offset="0.643000" stop-color="#A5CD1D"/>
			<stop offset="0.717000" stop-color="#8FC922"/>
			<stop offset="0.793000" stop-color="#70C22A"/>
			<stop offset="0.871000" stop-color="#48BA34"/>
			<stop offset="0.949000" stop-color="#18B040"/>
			<stop offset="0.981000" stop-color="#02AB46"/>
		</radialGradient>
	</defs>
	<path id="Vector" d="M21.54 7.68C21.72 7.06 21.52 5.54 22.73 4.53C23.93 3.53 25.81 3.65 26.94 4.71C28.07 5.77 28.25 7.75 26.91 9.06C25.58 10.37 24.96 9.64 24.22 10.35C23.47 11.06 23.6 11.63 24.06 12.06C24.52 12.49 29.12 17.2 28.99 17.5C28.86 17.8 25.73 21.28 25.22 21.53C24.7 21.78 23.8 21.76 23.62 20.93C23.44 20.1 23.75 18.43 22.47 18C21.18 17.58 20.62 17.93 19.36 19.24C18.1 20.55 17.54 21.98 18.56 22.71C19.59 23.44 20.88 23.14 21.39 24C21.9 24.86 21.13 25.63 19.77 26.87C18.41 28.1 17.36 29.11 17.18 28.98C17 28.86 13.09 24.8 12.71 24.38C12.32 23.95 11.58 23.57 10.86 24.22C10.14 24.88 10.01 27.02 6.98 27.02C3.95 27.02 3.59 23.8 4.67 22.46C5.75 21.13 8.13 21 8.19 20.1C8.21 19.68 6.9 18.56 5.72 17.35C4.34 15.93 3.05 14.43 3 14.25C2.9 13.93 5.87 11.06 6.44 10.65C7 10.25 7.65 10.5 7.95 10.83C8.26 11.16 8.34 12.16 8.6 12.74C8.85 13.32 10.06 15.84 12.96 12.97C15.84 10.12 13.12 8.89 12.19 8.64C11.27 8.38 10.6 8.3 10.34 7.38C10.14 6.65 11.27 5.79 12.45 4.68C13.63 3.57 14.32 3 14.63 3C14.94 3 19.08 7.35 19.62 7.85C20.16 8.36 20.49 8.49 20.88 8.38C21.26 8.28 21.47 7.96 21.54 7.68Z" fill="url(#paint_radial_201_73_0)" fill-opacity="1.000000" fill-rule="nonzero"/>
</svg>
