<svg width="32.000000" height="32.000000" viewBox="0 0 32 32" fill="none" xmlns="http://www.w3.org/2000/svg" xmlns:xlink="http://www.w3.org/1999/xlink">
	<desc>
			Created with Pixso.
	</desc>
	<defs>
		<filter id="filter_201_113_dd" x="5.000000" y="21.403564" width="21.664062" height="7.596466" filterUnits="userSpaceOnUse" color-interpolation-filters="sRGB">
			<feFlood flood-opacity="0" result="BackgroundImageFix"/>
			<feBlend mode="normal" in="SourceGraphic" in2="BackgroundImageFix" result="shape"/>
			<feColorMatrix in="SourceAlpha" type="matrix" values="0 0 0 0 0 0 0 0 0 0 0 0 0 0 0 0 0 0 127 0" result="hardAlpha"/>
			<feOffset dx="0" dy="1"/>
			<feGaussianBlur stdDeviation="0.333333"/>
			<feComposite in2="hardAlpha" operator="arithmetic" k2="-1" k3="1"/>
			<feColorMatrix type="matrix" values="0 0 0 0 0 0 0 0 0 0 0 0 0 0 0 0 0 0 0.13 0"/>
			<feBlend mode="normal" in2="shape" result="effect_innerShadow_1"/>
		</filter>
		<filter id="filter_201_114_dd" x="5.001953" y="3.000000" width="21.702637" height="21.648804" filterUnits="userSpaceOnUse" color-interpolation-filters="sRGB">
			<feFlood flood-opacity="0" result="BackgroundImageFix"/>
			<feBlend mode="normal" in="SourceGraphic" in2="BackgroundImageFix" result="shape"/>
			<feColorMatrix in="SourceAlpha" type="matrix" values="0 0 0 0 0 0 0 0 0 0 0 0 0 0 0 0 0 0 127 0" result="hardAlpha"/>
			<feOffset dx="0" dy="1"/>
			<feGaussianBlur stdDeviation="0.333333"/>
			<feComposite in2="hardAlpha" operator="arithmetic" k2="-1" k3="1"/>
			<feColorMatrix type="matrix" values="0 0 0 0 0 0 0 0 0 0 0 0 0 0 0 0 0 0 0.13 0"/>
			<feBlend mode="normal" in2="shape" result="effect_innerShadow_1"/>
		</filter>
	</defs>
	<g filter="url(#filter_201_113_dd)">
		<path id="Vector" d="M26.03 21.48C25.83 21.4 25.62 21.38 25.41 21.42C25.2 21.46 25.01 21.56 24.85 21.71L24.72 21.84C23.55 23.03 22.16 23.97 20.62 24.62C19.08 25.26 17.43 25.59 15.77 25.59C14.1 25.57 12.45 25.21 10.92 24.55C9.39 23.89 8.01 22.93 6.85 21.73C6.71 21.57 6.51 21.46 6.3 21.42C6.08 21.38 5.86 21.4 5.66 21.49C5.46 21.57 5.28 21.71 5.16 21.9C5.04 22.09 4.98 22.31 5 22.53L5 27.95C5 28.23 5.11 28.5 5.3 28.69C5.5 28.89 5.76 29 6.04 29L25.61 29C25.89 29 26.16 28.89 26.35 28.69C26.55 28.5 26.66 28.23 26.66 27.95L26.66 22.48C26.67 22.27 26.61 22.06 26.5 21.88C26.39 21.7 26.23 21.56 26.03 21.48Z" fill="#E9ECED" fill-opacity="1.000000" fill-rule="nonzero"/>
	</g>
	<g filter="url(#filter_201_114_dd)">
		<path id="Vector" d="M15.85 3C13.7 3 11.6 3.63 9.82 4.82C8.04 6.01 6.64 7.7 5.82 9.68C5 11.66 4.79 13.83 5.21 15.93C5.62 18.03 6.66 19.96 8.18 21.47C9.69 22.99 11.63 24.02 13.73 24.44C15.84 24.85 18.02 24.64 20 23.82C21.98 23 23.68 21.61 24.87 19.83C26.06 18.05 26.7 15.96 26.7 13.82C26.69 10.95 25.55 8.2 23.52 6.17C21.48 4.14 18.72 3 15.85 3Z" fill="#E9ECED" fill-opacity="1.000000" fill-rule="nonzero"/>
	</g>
</svg>
